<svg width="500" height="500" viewBox="0 0 500 500" fill="none" xmlns="http://www.w3.org/2000/svg">
<path d="M272.807 199.732H260.28L250.002 208.725L240.044 199.732H227.518L250.002 160.866L272.807 199.732Z" fill="#F06927"/>
<path d="M382.014 205.836V223.181C382.014 232.496 376.875 240.847 368.524 245.022L250.001 302.839L216.596 286.457L382.014 205.836Z" fill="#F1284C"/>
<path d="M241.328 224.787L207.923 241.168L113.49 195.236C105.139 191.061 100 182.709 100 173.395V156.05L241.328 224.787Z" fill="#F1284C"/>
<path d="M400 156.05V173.395C400 182.709 394.86 191.061 386.509 195.236L207.922 282.282L131.797 245.022C123.446 240.847 118.307 232.496 118.307 223.181V205.836L207.922 249.519L400 156.05Z" fill="#F1284C"/>
<path d="M363.706 255.94V273.285C363.706 282.6 358.567 290.951 350.216 295.127L250.001 343.949L150.108 295.127C141.756 290.951 136.617 282.6 136.617 273.285V255.94L250.001 311.187L363.706 255.94Z" fill="#F1284C"/>
</svg>
