<svg xmlns="http://www.w3.org/2000/svg" viewBox="0 0 24 24" role="img" aria-label="Website">
  <circle cx="12" cy="12" r="10" fill="#2563eb"/>
  <path fill="#ffffff" d="M12 4.8c2.5 0 4.7 1.1 6.2 2.9H5.8A8 8 0 0 1 12 4.8zm7.1 4.9c.6 1 .9 2.1.9 3.3s-.3 2.3-.9 3.3h-2.6c.2-1 .3-2.1.3-3.3s-.1-2.3-.3-3.3zm-11 0c-.2 1-.3 2.1-.3 3.3s.1 2.3.3 3.3H5.5a8 8 0 0 1 0-6.6zm1.9 0h4c.2 1 .3 2.1.3 3.3s-.1 2.3-.3 3.3h-4c-.2-1-.3-2.1-.3-3.3s.1-2.3.3-3.3zm8.2 8.2A8 8 0 0 1 12 19.2a8 8 0 0 1-6.2-1.3zm-2.5 0a8.3 8.3 0 0 1-3.7 0c.6.8 1.3 1.3 1.8 1.3s1.2-.5 1.9-1.3z"/>
</svg>
